<?xml version="1.0" standalone="no"?>
<!DOCTYPE svg PUBLIC "-//W3C//DTD SVG 20010904//EN"
 "http://www.w3.org/TR/2001/REC-SVG-20010904/DTD/svg10.dtd">
<svg version="1.0" xmlns="http://www.w3.org/2000/svg"
 width="102.000000pt" height="102.000000pt" viewBox="0 0 102.000000 102.000000"
 preserveAspectRatio="xMidYMid meet">
<metadata>
Created by potrace 1.14, written by Peter Selinger 2001-2017
</metadata>
<g transform="translate(0.000000,102.000000) scale(0.100000,-0.100000)"
fill="#000000" stroke="none">
<path d="M262 980 c-18 -32 -26 -39 -40 -32 -9 5 -35 8 -57 8 l-40 -1 -1 -102
-2 -103 -46 -77 -45 -78 39 -3 c22 -2 40 -6 41 -10 0 -4 2 -16 4 -27 5 -25 12
-81 21 -160 3 -33 7 -67 9 -75 1 -8 6 -43 10 -77 l7 -63 154 0 c124 0 154 3
154 14 0 19 -19 22 -157 20 -83 -1 -123 3 -124 10 0 6 -2 18 -4 27 -1 8 -6 42
-9 75 -4 32 -9 70 -11 84 -2 14 -6 52 -10 85 -3 33 -8 68 -11 78 -5 16 5 17
120 17 78 0 127 4 131 11 4 6 5 12 3 15 -3 2 -73 4 -156 5 -84 0 -152 3 -152
7 0 4 48 87 107 184 l107 178 206 0 206 0 107 -179 c59 -98 107 -181 107 -185
0 -3 -68 -5 -151 -5 -82 1 -153 -1 -156 -4 -13 -14 12 -27 52 -27 l43 0 -1
-85 c-1 -51 2 -85 8 -85 6 0 10 35 10 85 l-1 85 68 0 c37 0 69 -3 71 -7 2 -5
-4 -71 -14 -148 -10 -77 -20 -154 -23 -171 -2 -18 -6 -36 -10 -42 -4 -6 -58
-10 -138 -9 -118 1 -133 -1 -136 -16 -3 -15 11 -17 151 -17 l154 0 17 133 c9
72 19 150 21 172 12 102 13 105 51 105 25 0 35 4 32 14 -2 7 -57 104 -123 215
l-120 201 -225 0 -225 0 -23 -40z m-62 -83 c0 -19 -34 -87 -43 -87 -2 0 -3 24
-3 53 1 36 6 54 16 58 21 9 30 2 30 -24z"/>
<path d="M503 938 c-15 -18 -9 -63 7 -63 8 0 15 12 15 27 2 36 -8 53 -22 36z"/>
<path d="M380 892 c0 -25 35 -58 45 -42 8 12 -20 60 -35 60 -6 0 -10 -8 -10
-18z"/>
<path d="M606 888 c-18 -25 -21 -48 -7 -48 12 0 41 40 41 57 0 20 -17 15 -34
-9z"/>
<path d="M443 830 c-69 -42 -89 -129 -45 -190 13 -18 26 -51 29 -73 2 -23 8
-46 13 -51 14 -14 116 -16 133 -3 9 7 18 31 21 54 2 22 15 55 27 73 28 37 30
106 5 145 -24 36 -75 65 -116 65 -19 0 -49 -9 -67 -20z m117 -25 c56 -29 70
-103 30 -158 -13 -16 -25 -46 -27 -66 -6 -45 -6 -45 -54 -48 -42 -2 -45 0 -52
54 -3 17 -14 44 -26 60 -70 96 25 212 129 158z"/>
<path d="M445 775 c-14 -13 -25 -31 -25 -40 0 -23 8 -18 25 15 9 17 22 30 30
30 8 0 15 5 15 10 0 17 -20 11 -45 -15z"/>
<path d="M300 796 c0 -8 14 -19 30 -25 24 -8 30 -7 30 4 0 14 -29 35 -49 35
-6 0 -11 -6 -11 -14z"/>
<path d="M675 798 c-30 -16 -31 -18 -16 -28 18 -10 61 8 61 27 0 16 -18 16
-45 1z"/>
<path d="M320 693 c-8 -2 -21 -7 -29 -9 -10 -3 -11 -8 -4 -15 16 -16 73 -1 66
17 -5 15 -9 16 -33 7z"/>
<path d="M669 689 c-12 -8 -12 -11 1 -19 19 -13 66 -9 62 5 -4 15 -47 24 -63
14z"/>
<path d="M449 479 c-25 -15 3 -26 61 -24 59 2 80 9 67 22 -9 9 -114 11 -128 2z"/>
<path d="M465 429 c-10 -16 -2 -20 43 -22 44 -1 58 5 47 22 -8 14 -82 14 -90
0z"/>
<path d="M710 365 c0 -24 5 -35 15 -35 10 0 15 11 15 35 0 24 -5 35 -15 35
-10 0 -15 -11 -15 -35z"/>
<path d="M498 378 c-2 -7 -4 -67 -4 -133 1 -100 4 -120 16 -120 13 0 15 21 15
129 0 86 -4 131 -11 133 -7 2 -13 -2 -16 -9z"/>
<path d="M377 79 l-69 -79 202 0 202 0 -69 79 c-65 75 -93 96 -93 69 0 -7 15
-29 33 -48 69 -76 75 -70 -73 -70 l-132 0 46 54 c25 30 46 59 46 65 0 26 -30
4 -93 -70z"/>
</g>
</svg>
